<svg width="22" height="22" viewBox="0 0 22 22" fill="none" xmlns="http://www.w3.org/2000/svg">
<path d="M14.8318 7.11792C14.2067 3.39169 12.7323 0.775391 11.0165 0.775391C9.30062 0.775391 7.82621 3.39169 7.2011 7.11792H14.8318ZM6.87776 11.1237C6.87776 12.0501 6.92949 12.9389 7.02003 13.7943H15.0086C15.0991 12.9389 15.1508 12.0501 15.1508 11.1237C15.1508 10.1974 15.0991 9.3086 15.0086 8.45319H7.02003C6.92949 9.3086 6.87776 10.1974 6.87776 11.1237ZM20.876 7.11792C19.643 4.28465 17.1469 2.09397 14.0644 1.20935C15.1163 2.61973 15.8406 4.74365 16.22 7.11792H20.876ZM7.96417 1.20935C4.88601 2.09397 2.38555 4.28465 1.15688 7.11792H5.81291C6.18798 4.74365 6.91225 2.61973 7.96417 1.20935ZM21.3373 8.45319H16.3924C16.483 9.32946 16.5347 10.2266 16.5347 11.1237C16.5347 12.0209 16.483 12.918 16.3924 13.7943H21.333C21.5701 12.9389 21.7038 12.0501 21.7038 11.1237C21.7038 10.1974 21.5701 9.3086 21.3373 8.45319ZM5.4982 11.1237C5.4982 10.2266 5.54993 9.32946 5.64046 8.45319H0.695587C0.462786 9.3086 0.324829 10.1974 0.324829 11.1237C0.324829 12.0501 0.462786 12.9389 0.695587 13.7943H5.63615C5.54993 12.918 5.4982 12.0209 5.4982 11.1237ZM7.2011 15.1295C7.82621 18.8558 9.30062 21.4721 11.0165 21.4721C12.7323 21.4721 14.2067 18.8558 14.8318 15.1295H7.2011ZM14.0687 21.0381C17.1469 20.1535 19.6474 17.9628 20.8803 15.1295H16.2243C15.8449 17.5038 15.1207 19.6277 14.0687 21.0381ZM1.15688 15.1295C2.38986 17.9628 4.88601 20.1535 7.96848 21.0381C6.91656 19.6277 6.19229 17.5038 5.81291 15.1295H1.15688Z" fill="white"/>
</svg>
