<svg width="19" height="24" viewBox="0 0 19 24" fill="none" xmlns="http://www.w3.org/2000/svg">
<path d="M11.0272 2.58474L16.4979 8.08282V20.7978H2.90616V2.58474H11.0272ZM11.9673 0.308105H2.90616C1.66025 0.308105 0.640869 1.33259 0.640869 2.58474V20.7978C0.640869 22.05 1.66025 23.0745 2.90616 23.0745H16.4979C17.7438 23.0745 18.7632 22.05 18.7632 20.7978V7.13801L11.9673 0.308105ZM9.70204 13.9679C10.948 13.9679 11.9673 12.9434 11.9673 11.6913C11.9673 10.4391 10.948 9.41465 9.70204 9.41465C8.45613 9.41465 7.43675 10.4391 7.43675 11.6913C7.43675 12.9434 8.45613 13.9679 9.70204 13.9679ZM14.2326 17.8724C14.2326 16.9503 13.689 16.1307 12.8508 15.7665C11.888 15.3453 10.8234 15.1062 9.70204 15.1062C8.58072 15.1062 7.51603 15.3453 6.55328 15.7665C5.71513 16.1307 5.17146 16.9503 5.17146 17.8724V18.5212H14.2326V17.8724Z" fill="white"/>
</svg>
