<svg width="24" height="22" viewBox="0 0 24 22" fill="none" xmlns="http://www.w3.org/2000/svg">
<path d="M5.6866 21.4721H0.968325V7.65396H5.6866V21.4721ZM3.32492 5.76904C1.81617 5.76904 0.592407 4.63254 0.592407 3.26043C0.592407 2.60136 0.880297 1.96928 1.39274 1.50324C1.90519 1.03721 2.60022 0.775391 3.32492 0.775391C4.04963 0.775391 4.74466 1.03721 5.2571 1.50324C5.76955 1.96928 6.05744 2.60136 6.05744 3.26043C6.05744 4.63254 4.83317 5.76904 3.32492 5.76904ZM23.3456 21.4721H18.6375V14.7455C18.6375 13.1424 18.6019 11.0865 16.1844 11.0865C13.7312 11.0865 13.3553 12.8282 13.3553 14.63V21.4721H8.64213V7.65396H13.1674V9.53888H13.2334C13.8633 8.4532 15.402 7.30747 17.6977 7.30747C22.4729 7.30747 23.3507 10.1672 23.3507 13.8816V21.4721H23.3456Z" fill="white"/>
</svg>
